SplineFontDB: 3.2
FontName: BARC
FullName: BARC
FamilyName: BARC
Weight: Regular
Copyright: Copyright (c) 2020, James Groves
UComments: "2020-8-7: Created with FontForge (http://fontforge.org)"
Version: 001.000
ItalicAngle: 0
UnderlinePosition: -100
UnderlineWidth: 50
Ascent: 800
Descent: 200
InvalidEm: 0
LayerCount: 2
Layer: 0 0 "Back" 1
Layer: 1 0 "Fore" 0
XUID: [1021 616 -1694118403 13591]
StyleMap: 0x0000
FSType: 0
OS2Version: 0
OS2_WeightWidthSlopeOnly: 0
OS2_UseTypoMetrics: 1
CreationTime: 1596818005
ModificationTime: 1597138235
OS2TypoAscent: 0
OS2TypoAOffset: 1
OS2TypoDescent: 0
OS2TypoDOffset: 1
OS2TypoLinegap: 90
OS2WinAscent: 0
OS2WinAOffset: 1
OS2WinDescent: 0
OS2WinDOffset: 1
HheadAscent: 0
HheadAOffset: 1
HheadDescent: 0
HheadDOffset: 1
OS2Vendor: 'PfEd'
MarkAttachClasses: 1
DEI: 91125
Encoding: UnicodeFull
UnicodeInterp: none
NameList: AGL For New Fonts
DisplaySize: -48
AntiAlias: 1
FitToEm: 0
WinInfo: 982917 39 14
BeginPrivate: 0
EndPrivate
BeginChars: 1114112 21

StartChar: one
Encoding: 49 49 0
Width: 1000
HStem: 1.4541 117.546<461.909 516.454> 119.637 54.5449<383.569 594.794> 737.818 54.5449<383.569 594.794>
VStem: 152.818 54.5449<350.387 561.613> 461.909 54.5449<1.4541 119> 771 54.5449<350.387 561.613>
CounterMasks: 1 1c
LayerCount: 2
Fore
SplineSet
489.181640625 792.36328125 m 0
 674.626953125 792.36328125 825.544921875 641.4453125 825.544921875 456 c 0
 825.544921875 270.5546875 674.626953125 119.63671875 489.181640625 119.63671875 c 0
 303.736328125 119.63671875 152.818359375 270.5546875 152.818359375 456 c 0
 152.818359375 641.4453125 303.736328125 792.36328125 489.181640625 792.36328125 c 0
489.181640625 737.818359375 m 0
 333.21484375 737.818359375 207.36328125 611.966796875 207.36328125 456 c 0
 207.36328125 300.033203125 333.21484375 174.181640625 489.181640625 174.181640625 c 0
 645.1484375 174.181640625 771 300.033203125 771 456 c 0
 771 611.966796875 645.1484375 737.818359375 489.181640625 737.818359375 c 0
461.909179688 119 m 1
 516.454101562 119 l 1
 516.454101562 1.4541015625 l 1
 461.909179688 1.4541015625 l 1
 461.909179688 119 l 1
EndSplineSet
Validated: 1
EndChar

StartChar: uF0000
Encoding: 983040 983040 1
Width: 1000
Flags: W
HStem: -0.363281 54.5449<397.569 608.794> 617.818 54.5449<397.569 608.794>
VStem: 166.818 54.5449<230.387 441.613> 785 54.5449<230.387 441.613>
LayerCount: 2
Fore
SplineSet
503.181640625 672.36328125 m 0
 688.626953125 672.36328125 839.544921875 521.4453125 839.544921875 336 c 0
 839.544921875 150.5546875 688.626953125 -0.36328125 503.181640625 -0.36328125 c 0
 317.736328125 -0.36328125 166.818359375 150.5546875 166.818359375 336 c 0
 166.818359375 521.4453125 317.736328125 672.36328125 503.181640625 672.36328125 c 0
503.181640625 617.818359375 m 0
 347.21484375 617.818359375 221.36328125 491.966796875 221.36328125 336 c 0
 221.36328125 180.033203125 347.21484375 54.181640625 503.181640625 54.181640625 c 0
 659.1484375 54.181640625 785 180.033203125 785 336 c 0
 785 491.966796875 659.1484375 617.818359375 503.181640625 617.818359375 c 0
EndSplineSet
EndChar

StartChar: uF0001
Encoding: 983041 983041 2
Width: 1000
Flags: W
HStem: 1.4541 117.546<461.909 516.454> 119.637 54.5449<383.569 594.794> 737.818 54.5449<383.569 594.794>
VStem: 152.818 54.5449<350.387 561.613> 461.909 54.5449<1.4541 119> 771 54.5449<350.387 561.613>
LayerCount: 2
Fore
SplineSet
501.181640625 675.36328125 m 4
 686.626953125 675.36328125 837.544921875 524.4453125 837.544921875 339 c 4
 837.544921875 153.5546875 686.626953125 2.63671875 501.181640625 2.63671875 c 4
 315.736328125 2.63671875 164.818359375 153.5546875 164.818359375 339 c 4
 164.818359375 524.4453125 315.736328125 675.36328125 501.181640625 675.36328125 c 4
501.181640625 620.818359375 m 4
 345.21484375 620.818359375 219.36328125 494.966796875 219.36328125 339 c 4
 219.36328125 183.033203125 345.21484375 57.181640625 501.181640625 57.181640625 c 4
 657.1484375 57.181640625 783 183.033203125 783 339 c 4
 783 494.966796875 657.1484375 620.818359375 501.181640625 620.818359375 c 4
473.909179688 2 m 5
 528.454101562 2 l 5
 528.454101562 -115.545898438 l 5
 473.909179688 -115.545898438 l 5
 473.909179688 2 l 5
EndSplineSet
EndChar

StartChar: uF0002
Encoding: 983042 983042 3
Width: 1000
Flags: W
HStem: 0 54.5449<391.392 602.608> 618.182 54.5449<391.392 602.608>
VStem: 160.637 54.5449<230.756 441.971> 778.818 54.5449<230.756 441.971>
LayerCount: 2
Fore
SplineSet
215.181640625 336.36328125 m 0
 215.181640625 180.705078125 341.341796875 54.544921875 497 54.544921875 c 4
 652.658203125 54.544921875 778.818359375 180.705078125 778.818359375 336.36328125 c 4
 778.818359375 492.021484375 652.658203125 618.181640625 497 618.181640625 c 0
 341.341796875 618.181640625 215.181640625 492.021484375 215.181640625 336.36328125 c 0
160.63671875 336.36328125 m 0
 160.63671875 522.111328125 311.251953125 672.7265625 497 672.7265625 c 0
 682.748046875 672.7265625 833.36328125 522.111328125 833.36328125 336.36328125 c 0
 833.36328125 150.615234375 682.748046875 0 497 0 c 0
 311.251953125 0 160.63671875 150.615234375 160.63671875 336.36328125 c 0
834.150390625 360.96875 m 1
 834.150390625 311.7578125 l 1
 951.545898438 311.7578125 l 1
 951.545898438 360.96875 l 1
 834.150390625 360.96875 l 1
159.849609375 311.7578125 m 1
 159.849609375 360.96875 l 1
 42.4541015625 360.96875 l 1
 42.4541015625 311.7578125 l 1
 159.849609375 311.7578125 l 1
EndSplineSet
EndChar

StartChar: uF0003
Encoding: 983043 983043 4
Width: 1000
Flags: W
HStem: 5.09082 54.5449<390.952 602.082> 623.272 54.5449<390.952 602.082>
VStem: 160.153 54.5449<235.889 447.019> 778.335 54.5449<235.889 447.019>
LayerCount: 2
Fore
SplineSet
778.334960938 341.454101562 m 0
 778.334960938 185.909179688 652.061523438 59.6357421875 496.516601562 59.6357421875 c 0
 340.971679688 59.6357421875 214.698242188 185.909179688 214.698242188 341.454101562 c 0
 214.698242188 496.999023438 340.971679688 623.272460938 496.516601562 623.272460938 c 0
 652.061523438 623.272460938 778.334960938 496.999023438 778.334960938 341.454101562 c 0
832.879882812 341.454101562 m 0
 832.879882812 527.102539062 682.165039062 677.817382812 496.516601562 677.817382812 c 0
 310.868164062 677.817382812 160.153320312 527.102539062 160.153320312 341.454101562 c 0
 160.153320312 155.805664062 310.868164062 5.0908203125 496.516601562 5.0908203125 c 0
 682.165039062 5.0908203125 832.879882812 155.805664062 832.879882812 341.454101562 c 0
472.033203125 678.776367188 m 1
 521 678.776367188 l 1
 521 796 l 1
 472.033203125 796 l 1
 472.033203125 678.776367188 l 1
EndSplineSet
EndChar

StartChar: uF0004
Encoding: 983044 983044 5
Width: 1000
Flags: W
HStem: 1 21G<78.4541 133> 529.092 54.5449<309.771 392.592 637.044 719.865> 692.728 54.5459<146.135 228.956 473.407 556.228 799.764 842.091>
VStem: 78.4541 54.5459<1 678.755> 242.091 54.5449<597.609 678.755> 405.727 54.5459<597.609 678.755> 569.363 54.5459<597.609 678.755> 733 54.5449<597.609 680.509>
LayerCount: 2
Fore
SplineSet
187.544921875 747.2734375 m 0
 214.060546875 747.2734375 240.942382812 738.564453125 261.90625 719.9296875 c 0
 282.870117188 701.294921875 296.635742188 672.2734375 296.635742188 638.182617188 c 0
 296.635742188 617.727539062 303.32421875 605.83984375 313.041992188 597.202148438 c 0
 322.759765625 588.564453125 336.788085938 583.63671875 351.181640625 583.63671875 c 0
 365.575195312 583.63671875 379.602539062 588.564453125 389.3203125 597.202148438 c 0
 399.038085938 605.83984375 405.7265625 617.727539062 405.7265625 638.182617188 c 0
 405.7265625 672.2734375 419.493164062 701.294921875 440.45703125 719.9296875 c 0
 461.420898438 738.564453125 488.302734375 747.2734375 514.818359375 747.2734375 c 0
 541.333007812 747.2734375 568.21484375 738.564453125 589.178710938 719.9296875 c 0
 610.142578125 701.294921875 623.909179688 672.2734375 623.909179688 638.182617188 c 0
 623.909179688 617.727539062 630.59765625 605.83984375 640.315429688 597.202148438 c 0
 650.033203125 588.564453125 664.060546875 583.63671875 678.454101562 583.63671875 c 0
 692.848632812 583.63671875 706.875976562 588.564453125 716.59375 597.202148438 c 0
 726.311523438 605.83984375 733 617.727539062 733 638.182617188 c 0
 733 698.108398438 782.1640625 747.2734375 842.090820312 747.2734375 c 1
 842.090820312 692.727539062 l 1
 811.642578125 692.727539062 787.544921875 668.629882812 787.544921875 638.182617188 c 0
 787.544921875 604.091796875 773.779296875 575.069335938 752.815429688 556.435546875 c 0
 731.850585938 537.80078125 704.969726562 529.091796875 678.454101562 529.091796875 c 0
 651.939453125 529.091796875 625.057617188 537.80078125 604.09375 556.435546875 c 0
 583.129882812 575.069335938 569.36328125 604.091796875 569.36328125 638.182617188 c 0
 569.36328125 658.63671875 562.674804688 670.524414062 552.95703125 679.162109375 c 0
 543.239257812 687.80078125 529.211914062 692.727539062 514.818359375 692.727539062 c 0
 500.423828125 692.727539062 486.396484375 687.80078125 476.678710938 679.162109375 c 0
 466.9609375 670.524414062 460.272460938 658.63671875 460.272460938 638.182617188 c 0
 460.272460938 604.091796875 446.506835938 575.069335938 425.541992188 556.435546875 c 0
 404.578125 537.80078125 377.696289062 529.091796875 351.181640625 529.091796875 c 0
 324.666015625 529.091796875 297.78515625 537.80078125 276.8203125 556.435546875 c 0
 255.856445312 575.069335938 242.090820312 604.091796875 242.090820312 638.182617188 c 0
 242.090820312 658.63671875 235.40234375 670.524414062 225.684570312 679.162109375 c 0
 215.966796875 687.80078125 201.939453125 692.727539062 187.544921875 692.727539062 c 0
 173.151367188 692.727539062 159.124023438 687.80078125 149.40625 679.162109375 c 0
 139.688476562 670.524414062 133 658.63671875 133 638.182617188 c 2
 133 1 l 5
 78.4541015625 1 l 5
 78.4541015625 638.182617188 l 2
 78.4541015625 672.2734375 92.220703125 701.294921875 113.184570312 719.9296875 c 0
 134.1484375 738.564453125 161.030273438 747.2734375 187.544921875 747.2734375 c 0
EndSplineSet
EndChar

StartChar: uF0005
Encoding: 983045 983045 6
Width: 1000
Flags: W
HStem: 3.63672 54.5449<195.976 369.51 630.127 803.66> 440 54.5449<195.976 369.51 630.127 803.66>
VStem: 36.1816 54.5459<163.431 334.751> 472.546 54.5449<162.037 336.145> 908.909 54.5459<163.431 334.751>
LayerCount: 2
Fore
SplineSet
281.63671875 624.544921875 m 4
 377.133789062 624.544921875 459.272460938 569.05859375 499.818359375 489.140625 c 5
 540.364257812 569.05859375 622.502929688 624.544921875 718 624.544921875 c 4
 853.23828125 624.544921875 963.455078125 514.329101562 963.455078125 379.090820312 c 4
 963.455078125 243.852539062 853.23828125 133.63671875 718 133.63671875 c 4
 622.502929688 133.63671875 540.364257812 189.123046875 499.818359375 269.041015625 c 5
 459.272460938 189.123046875 377.133789062 133.63671875 281.63671875 133.63671875 c 4
 146.3984375 133.63671875 36.181640625 243.852539062 36.181640625 379.090820312 c 4
 36.181640625 514.329101562 146.3984375 624.544921875 281.63671875 624.544921875 c 4
281.63671875 570 m 4
 175.876953125 570 90.7275390625 484.850585938 90.7275390625 379.090820312 c 4
 90.7275390625 273.331054688 175.876953125 188.181640625 281.63671875 188.181640625 c 4
 387.395507812 188.181640625 472.545898438 273.331054688 472.545898438 379.090820312 c 4
 472.545898438 484.850585938 387.395507812 570 281.63671875 570 c 4
718 570 m 4
 612.241210938 570 527.090820312 484.850585938 527.090820312 379.090820312 c 4
 527.090820312 273.331054688 612.241210938 188.181640625 718 188.181640625 c 4
 823.759765625 188.181640625 908.909179688 273.331054688 908.909179688 379.090820312 c 4
 908.909179688 484.850585938 823.759765625 570 718 570 c 4
EndSplineSet
EndChar

StartChar: uF0006
Encoding: 983046 983046 7
Width: 1000
Flags: W
HStem: 0 43.0908<406.723 557.277> 344.728 43.0908<406.816 557.184> 689.455 43.0908<406.723 557.277>
VStem: 288.092 43.0898<118.725 193.909 463.359 613.914> 632.818 43.0908<118.632 269.187 538.637 613.821>
LayerCount: 2
Fore
SplineSet
505 775 m 4
 630.000976562 775 731.874023438 682.921875 731.874023438 569.940429688 c 5
 681.458007812 569.940429688 l 5
 681.458007812 658.294921875 602.75390625 729.430664062 505 729.430664062 c 4
 407.248046875 729.430664062 328.54296875 658.294921875 328.54296875 569.940429688 c 4
 328.54296875 481.586914062 407.248046875 410.450195312 505 410.450195312 c 4
 630.000976562 410.450195312 731.874023438 318.372070312 731.874023438 205.391601562 c 4
 731.874023438 92.41015625 630.000976562 0.33203125 505 0.33203125 c 4
 380.000976562 0.33203125 278.127929688 92.41015625 278.127929688 205.391601562 c 5
 328.54296875 205.391601562 l 5
 328.54296875 117.037109375 407.248046875 45.900390625 505 45.900390625 c 4
 602.75390625 45.900390625 681.458007812 117.037109375 681.458007812 205.391601562 c 4
 681.458007812 293.745117188 602.75390625 364.881835938 505 364.881835938 c 4
 380.000976562 364.881835938 278.127929688 456.959960938 278.127929688 569.940429688 c 4
 278.127929688 682.921875 380.000976562 775 505 775 c 4
EndSplineSet
EndChar

StartChar: uF0007
Encoding: 983047 983047 8
Width: 1000
Flags: W
HStem: 57.8701 48.582<411.453 564.966> 365.346 48.5371<411.861 564.559> 672.776 48.582<411.453 564.966> 758 20G<461.419 515>
VStem: 291.73 53.5791<168.647 235.898 475.123 611.54> 461.419 53.5811<1.22852 778> 631.109 53.5801<167.688 304.106 543.33 610.582>
LayerCount: 2
Fore
SplineSet
488.209960938 721.358398438 m 4
 596.415039062 721.358398438 684.689453125 641.348632812 684.689453125 543.330078125 c 5
 631.109375 543.330078125 l 5
 631.109375 615.112304688 567.453125 672.776367188 488.209960938 672.776367188 c 4
 408.965820312 672.776367188 345.309570312 615.112304688 345.309570312 543.330078125 c 4
 345.309570312 471.546875 408.965820312 413.8828125 488.209960938 413.8828125 c 4
 596.415039062 413.8828125 684.689453125 333.91796875 684.689453125 235.8984375 c 4
 684.689453125 137.879882812 596.415039062 57.8701171875 488.209960938 57.8701171875 c 4
 380.00390625 57.8701171875 291.73046875 137.879882812 291.73046875 235.8984375 c 5
 345.309570312 235.8984375 l 5
 345.309570312 164.116210938 408.965820312 106.452148438 488.209960938 106.452148438 c 4
 567.453125 106.452148438 631.109375 164.116210938 631.109375 235.8984375 c 4
 631.109375 307.681640625 567.453125 365.345703125 488.209960938 365.345703125 c 4
 380.00390625 365.345703125 291.73046875 445.310546875 291.73046875 543.330078125 c 4
 291.73046875 641.348632812 380.00390625 721.358398438 488.209960938 721.358398438 c 4
461.418945312 778 m 5
 515 778 l 5
 515 1.228515625 l 5
 461.418945312 1.228515625 l 5
 461.418945312 778 l 5
EndSplineSet
EndChar

StartChar: uF0008
Encoding: 983048 983048 9
Width: 1000
Flags: HW
LayerCount: 2
Fore
SplineSet
518.865234375 783.934570312 m 4
 538.361328125 784.08984375 557 782.619140625 573.920898438 779.68359375 c 4
 590.841796875 776.748046875 606.017578125 772.416992188 619.1796875 765.953125 c 4
 632.340820312 759.490234375 644.702148438 751.053710938 651.606445312 735.084960938 c 6
 607.548828125 713.359375 l 6
 608.384765625 711.424804688 606.333984375 715.250976562 598.920898438 718.891601562 c 4
 591.506835938 722.533203125 579.9453125 726.146484375 566.146484375 728.540039062 c 4
 538.547851562 733.329101562 501.918945312 733.526367188 466.684570312 727.258789062 c 4
 431.450195312 720.990234375 397.653320312 708.111328125 374.493164062 689.541992188 c 4
 351.333007812 670.971679688 338.3046875 649.108398438 338.3046875 616.267578125 c 4
 338.3046875 588.477539062 345.129882812 566.942382812 354.866210938 548.053710938 c 5
 387.749023438 576.905273438 427.731445312 594.4765625 467.94921875 601.356445312 c 4
 511.13671875 608.744140625 553.983398438 605.493164062 588.775390625 591.606445312 c 4
 606.170898438 584.663085938 621.778320312 574.999023438 633.8125 561.176757812 c 4
 645.84765625 547.35546875 653.850585938 528.543945312 653.850585938 508.313476562 c 4
 653.850585938 488.08203125 645.84765625 469.270507812 633.8125 455.44921875 c 4
 621.778320312 441.626953125 606.170898438 431.962890625 588.775390625 425.01953125 c 4
 553.983398438 411.131835938 511.13671875 407.8828125 467.94921875 415.26953125 c 4
 427.731445312 422.149414062 387.749023438 439.720703125 354.866210938 468.572265625 c 5
 345.129882812 449.68359375 338.3046875 428.147460938 338.3046875 400.358398438 c 4
 338.3046875 372.569335938 345.129882812 351.033203125 354.866210938 332.14453125 c 5
 387.749023438 360.997070312 427.731445312 378.568359375 467.94921875 385.447265625 c 4
 511.13671875 392.834960938 553.983398438 389.584960938 588.775390625 375.697265625 c 4
 606.170898438 368.75390625 621.778320312 359.08984375 633.8125 345.267578125 c 4
 645.84765625 331.446289062 653.850585938 312.634765625 653.850585938 292.403320312 c 4
 653.850585938 272.173828125 645.84765625 253.361328125 633.8125 239.540039062 c 4
 621.778320312 225.717773438 606.170898438 216.053710938 588.775390625 209.110351562 c 4
 553.983398438 195.223632812 511.13671875 191.97265625 467.94921875 199.360351562 c 4
 427.731445312 206.240234375 387.749023438 223.811523438 354.866210938 252.663085938 c 5
 345.129882812 233.774414062 338.3046875 212.239257812 338.3046875 184.44921875 c 4
 338.3046875 151.154296875 350.782226562 129.184570312 372.66015625 110.8046875 c 4
 394.537109375 92.423828125 426.625976562 79.6611328125 460.743164062 73.4248046875 c 4
 494.860351562 67.1884765625 530.872070312 67.376953125 559.4140625 72.2109375 c 4
 587.956054688 77.04296875 608.322265625 89.4970703125 610.330078125 92.283203125 c 6
 648.825195312 60.70703125 l 5
 630.606445312 35.4248046875 601.415039062 26.8271484375 567 21 c 4
 532.583007812 15.171875 492.23828125 15.0908203125 452.526367188 22.3486328125 c 4
 412.813476562 29.607421875 373.600585938 44.1025390625 342.634765625 70.1181640625 c 4
 311.668945312 96.134765625 289.759765625 135.69921875 289.759765625 184.44921875 c 4
 289.759765625 227.989257812 304.299804688 262.610351562 323.608398438 292.403320312 c 4
 304.299804688 322.198242188 289.759765625 356.819335938 289.759765625 400.358398438 c 4
 289.759765625 443.8984375 304.299804688 478.51953125 323.608398438 508.313476562 c 4
 304.299804688 538.106445312 289.759765625 572.727539062 289.759765625 616.267578125 c 4
 289.759765625 665.47265625 313.140625 705.142578125 345.352539062 730.969726562 c 4
 377.565429688 756.796875 418.1015625 771.17578125 458.720703125 778.40234375 c 4
 479.029296875 782.014648438 499.368164062 783.779296875 518.865234375 783.934570312 c 4
527.967773438 552.57421875 m 4
 511.444335938 553.901367188 493.509765625 553.265625 475.661132812 550.212890625 c 4
 442.368164062 544.518554688 410.25 529.913085938 385.5859375 508.313476562 c 5
 410.25 486.713867188 442.368164062 472.108398438 475.661132812 466.413085938 c 4
 511.359375 460.306640625 547.3984375 463.803710938 571.772460938 473.53125 c 4
 583.958007812 478.395507812 593.00390625 484.73828125 598.225585938 490.736328125 c 4
 603.447265625 496.734375 605.3046875 501.5546875 605.3046875 508.313476562 c 4
 605.3046875 515.071289062 603.447265625 519.891601562 598.225585938 525.889648438 c 4
 593.00390625 531.88671875 583.958007812 538.23046875 571.772460938 543.094726562 c 4
 559.584960938 547.958984375 544.490234375 551.247070312 527.967773438 552.57421875 c 4
527.967773438 336.665039062 m 4
 511.444335938 337.9921875 493.509765625 337.357421875 475.661132812 334.303710938 c 4
 442.368164062 328.608398438 410.25 314.002929688 385.5859375 292.403320312 c 5
 410.25 270.803710938 442.368164062 256.19921875 475.661132812 250.50390625 c 4
 511.359375 244.397460938 547.3984375 247.893554688 571.772460938 257.622070312 c 4
 583.958007812 262.487304688 593.00390625 268.830078125 598.225585938 274.828125 c 4
 603.447265625 280.825195312 605.3046875 285.646484375 605.3046875 292.403320312 c 4
 605.3046875 299.162109375 603.447265625 303.982421875 598.225585938 309.98046875 c 4
 593.00390625 315.978515625 583.958007812 322.321289062 571.772460938 327.185546875 c 4
 559.584960938 332.049804688 544.490234375 335.337890625 527.967773438 336.665039062 c 4
EndSplineSet
EndChar

StartChar: uF0009
Encoding: 983049 983049 10
Width: 1000
Flags: W
HStem: 375.455 54.5449<191 357.371 416.26 565.74 624.629 727.363>
VStem: 300.091 54.5459<166.525 239.091> 627.363 54.5459<566.364 638.93>
LayerCount: 2
Fore
SplineSet
491.639648438 757.379882812 m 0
 498.459960938 757.331054688 505.248046875 756.936523438 511.987304688 756.171875 c 0
 529.95703125 754.134765625 547.515625 749.595703125 564.046875 742.749023438 c 0
 630.172851562 715.362304688 681.909179688 650.251953125 681.909179688 566.364257812 c 1
 627.36328125 566.364257812 l 1
 627.36328125 628.270507812 590.975585938 672.572265625 543.202148438 692.358398438 c 0
 495.427734375 712.14453125 438.354492188 706.545898438 394.586914062 662.77734375 c 0
 350.818359375 619.008789062 345.219726562 561.935546875 365.005859375 514.162109375 c 0
 384.791992188 466.388671875 429.092773438 430 491 430 c 2
 727.36328125 430 l 1
 727.36328125 471.868164062 l 1
 797.037109375 425.418945312 l 1
 831.092773438 402.727539062 l 1
 727.36328125 333.586914062 l 1
 727.36328125 375.455078125 l 1
 624.62890625 375.455078125 l 1
 643.052734375 357.260742188 657.647460938 335.649414062 667.384765625 312.137695312 c 0
 694.771484375 246.01171875 685.290039062 163.423828125 625.978515625 104.112304688 c 0
 566.666992188 44.80078125 484.079101562 35.3193359375 417.953125 62.7060546875 c 0
 351.827148438 90.0927734375 300.090820312 155.203125 300.090820312 239.090820312 c 1
 354.63671875 239.090820312 l 1
 354.63671875 177.184570312 391.024414062 132.8828125 438.797851562 113.096679688 c 0
 486.572265625 93.310546875 543.645507812 98.9091796875 587.413085938 142.677734375 c 0
 631.181640625 186.446289062 636.780273438 243.51953125 616.994140625 291.29296875 c 0
 597.208007812 339.06640625 552.907226562 375.455078125 491 375.455078125 c 2
 191 375.455078125 l 1
 191 430 l 1
 357.37109375 430 l 1
 338.947265625 448.194335938 324.352539062 469.805664062 314.615234375 493.317382812 c 0
 287.228515625 559.443359375 296.709960938 642.03125 356.021484375 701.342773438 c 0
 394.944335938 740.265625 443.895507812 757.715820312 491.639648438 757.379882812 c 0
219.374023438 778.543945312 m 1
 253.53515625 736.001953125 l 1
 39.8671875 564.579101562 39.8671875 240.875976562 253.53515625 69.453125 c 1
 219.374023438 26.9111328125 l 1
 -20.55859375 219.403320312 -20.55859375 586.051757812 219.374023438 778.543945312 c 1
762.625976562 778.543945312 m 1
 1002.55859375 586.051757812 1002.55859375 219.403320312 762.625976562 26.9111328125 c 1
 728.46484375 69.453125 l 1
 942.1328125 240.875976562 942.1328125 564.579101562 728.46484375 736.001953125 c 1
 762.625976562 778.543945312 l 1
EndSplineSet
EndChar

StartChar: uF0027
Encoding: 983079 983079 11
Width: 1000
Flags: H
LayerCount: 2
Fore
SplineSet
173.63671875 471.181640625 m 5
 810 471.181640625 l 5
 810 416.63671875 l 5
 173.63671875 416.63671875 l 5
 173.63671875 471.181640625 l 5
173.63671875 307.544921875 m 5
 810 307.544921875 l 5
 810 253 l 5
 173.63671875 253 l 5
 173.63671875 307.544921875 l 5
EndSplineSet
EndChar

StartChar: uF0028
Encoding: 983080 983080 12
Width: 1000
Flags: H
LayerCount: 2
Fore
SplineSet
180.63671875 588 m 1
 444.272460938 588 l 1
 444.272460938 533.454101562 l 1
 180.63671875 533.454101562 l 1
 180.63671875 588 l 1
553.364257812 588 m 1
 817 588 l 1
 817 533.454101562 l 1
 553.364257812 533.454101562 l 1
 553.364257812 588 l 1
180.63671875 415.272460938 m 1
 444.272460938 415.272460938 l 1
 444.272460938 360.727539062 l 1
 180.63671875 360.727539062 l 1
 180.63671875 415.272460938 l 1
553.364257812 415.272460938 m 1
 817 415.272460938 l 1
 817 360.727539062 l 1
 553.364257812 360.727539062 l 1
 553.364257812 415.272460938 l 1
180.63671875 242.545898438 m 1
 444.272460938 242.545898438 l 1
 444.272460938 188 l 1
 180.63671875 188 l 1
 180.63671875 242.545898438 l 1
553.364257812 242.545898438 m 1
 817 242.545898438 l 1
 817 188 l 1
 553.364257812 188 l 1
 553.364257812 242.545898438 l 1
EndSplineSet
EndChar

StartChar: uF0186
Encoding: 983430 983430 14
Width: 1000
Flags: HW
LayerCount: 2
Fore
SplineSet
0 -202 m 25
 493 294 l 25
 1000 -200 l 25
 0 -202 l 25
EndSplineSet
EndChar

StartChar: uF0187
Encoding: 983431 983431 15
Width: 1000
Flags: HW
LayerCount: 2
Fore
SplineSet
0 -200 m 1
 0 -200 -0.00325761146197 -199.679668206 -0.00325761146197 -199.053831495 c 0
 -0.00325761146197 -172.820842681 5.72038834951 390.186407767 497 398 c 0
 500.331052296 398.052978963 503.639562717 398.079293606 506.925686932 398.079293606 c 0
 999.855272679 398.079293606 989.072846074 -194.026489481 1000 -198 c 0
 1000.09630349 -198.035019452 1000.14416569 -198.069502371 1000.14416569 -198.103456138 c 0
 1000.14416569 -199.749124067 887.709280001 -200.151741155 728.775356793 -200.151741155 c 0
 576.498004804 -200.151741155 381.535053047 -199.782143142 201.879789713 -199.782143142 c 0
 131.018868848 -199.782143142 62.5394080705 -199.839642543 0 -200 c 1
EndSplineSet
EndChar

StartChar: uF0188
Encoding: 983432 983432 16
Width: 1000
Flags: HW
LayerCount: 2
Fore
SplineSet
0 800 m 29
 1000 798 l 29
 493 304 l 29
 0 800 l 29
EndSplineSet
EndChar

StartChar: uF0189
Encoding: 983433 983433 17
Width: 1000
Flags: W
VStem: -0.149794 1000.34<644.243 798>
LayerCount: 2
Fore
SplineSet
391 644 m 1053
0 802 m 9
 1000 798 l 17
 1000 798 1000.18969515 794.281975015 1000.18969515 787.487055002 c 0
 1000.18969515 716.276293266 979.355400697 307.128919861 501 298 c 0
 495.951830443 297.903660886 490.954429186 297.855955391 486.007286566 297.855955391 c 0
 18.8824578403 297.855955391 -0.149793782702 723.185404704 -0.149793782702 792.50286851 c 0
 -0.149793782702 798.652434595 1.75692793647e-13 802 0 802 c 9
EndSplineSet
EndChar

StartChar: uF0029
Encoding: 983081 983081 18
Width: 1000
Flags: H
LayerCount: 2
Fore
SplineSet
194.63671875 620 m 5
 458.272460938 620 l 5
 458.272460938 565.454101562 l 5
 194.63671875 565.454101562 l 5
 194.63671875 620 l 5
567.364257812 620 m 5
 831 620 l 5
 831 565.454101562 l 5
 567.364257812 565.454101562 l 5
 567.364257812 620 l 5
194.63671875 447.272460938 m 5
 458.272460938 447.272460938 l 5
 458.272460938 392.727539062 l 5
 194.63671875 392.727539062 l 5
 194.63671875 447.272460938 l 5
567.364257812 447.272460938 m 5
 831 447.272460938 l 5
 831 392.727539062 l 5
 567.364257812 392.727539062 l 5
 567.364257812 447.272460938 l 5
194.63671875 274.545898438 m 5
 831 274.545898438 l 5
 831 220 l 5
 194.63671875 220 l 5
 194.63671875 274.545898438 l 5
EndSplineSet
EndChar

StartChar: uF002A
Encoding: 983082 983082 19
Width: 1000
Flags: H
LayerCount: 2
Fore
SplineSet
558.604492188 725.672851562 m 5
 602.922851562 693.854492188 l 5
 361.872070312 358.129882812 l 5
 609.137695312 110.864257812 l 5
 570.572265625 72.2998046875 l 5
 290.565429688 352.306640625 l 5
 558.604492188 725.672851562 l 5
617.127929688 175.6015625 m 5
 617.127929688 64.3095703125 l 5
 571.672851562 64.3095703125 l 5
 505.834960938 64.3095703125 l 5
 617.127929688 175.6015625 l 5
577 106 m 5
 575.4375 104.4375 l 5
 578.100585938 103.3359375 l 5
 577 106 l 5
EndSplineSet
EndChar

StartChar: uF002B
Encoding: 983083 983083 20
Width: 1000
Flags: H
LayerCount: 2
Fore
SplineSet
634.465820312 516.359375 m 4
 634.465820312 461.130859375 589.694335938 416.359375 534.465820312 416.359375 c 4
 479.237304688 416.359375 434.465820312 461.130859375 434.465820312 516.359375 c 4
 434.465820312 571.587890625 479.237304688 616.359375 534.465820312 616.359375 c 4
 589.694335938 616.359375 634.465820312 571.587890625 634.465820312 516.359375 c 1028
534.465820312 625.450195312 m 4
 594.607421875 625.450195312 643.556640625 576.500976562 643.556640625 516.359375 c 4
 643.556640625 456.217773438 594.607421875 407.268554688 534.465820312 407.268554688 c 4
 474.32421875 407.268554688 425.375 456.217773438 425.375 516.359375 c 4
 425.375 576.500976562 474.32421875 625.450195312 534.465820312 625.450195312 c 4
534.465820312 607.268554688 m 4
 484.150390625 607.268554688 443.556640625 566.674804688 443.556640625 516.359375 c 4
 443.556640625 466.043945312 484.150390625 425.450195312 534.465820312 425.450195312 c 4
 584.78125 425.450195312 625.375 466.043945312 625.375 516.359375 c 4
 625.375 566.674804688 584.78125 607.268554688 534.465820312 607.268554688 c 4
218.272460938 434.71875 m 5
 388.090820312 247.884765625 680.840820312 247.884765625 850.659179688 434.71875 c 5
 891 398 l 5
 700.119140625 187.993164062 368.8125 187.993164062 177.931640625 398 c 5
 218.272460938 434.71875 l 5
EndSplineSet
EndChar
